<svg xmlns="http://www.w3.org/2000/svg" viewBox="0 0 1200 630" role="img" aria-label="Nick Wolt — Električar">
  <rect width="1200" height="630" fill="#0A0A0A"></rect>
  <rect x="0" y="600" width="1200" height="30" fill="#FFD60A"></rect>

  
  <g transform="translate(200 195) scale(2.2)">
    <rect x="20" y="38" width="60" height="50" rx="14" fill="#FFFFFF"></rect>
    <rect x="32" y="14" width="9" height="26" rx="3" fill="#FFFFFF"></rect>
    <rect x="59" y="14" width="9" height="26" rx="3" fill="#FFFFFF"></rect>
    <path d="M50 88 Q50 104 36 104 Q22 104 22 92" fill="none" stroke="#FFFFFF" stroke-width="6" stroke-linecap="round"></path>
    <circle cx="38" cy="55" r="3.2" fill="#0A0A0A"></circle>
    <path d="M64 49 L57 58 L62 58 L60 65 L68 56 L63.5 56 L66 49 Z" fill="#FFD60A"></path>
    <path d="M40 74 Q50 80 60 74" fill="none" stroke="#0A0A0A" stroke-width="3" stroke-linecap="round"></path>
  </g>

  <text x="470" y="335" font-family="&#39;Space Grotesk&#39;, -apple-system, system-ui, sans-serif" font-weight="700" font-size="140" fill="#FFFFFF" letter-spacing="-6">nick<tspan fill="#FFD60A">·</tspan>wolt</text>

  <text x="472" y="395" font-family="&#39;Space Grotesk&#39;, -apple-system, system-ui, sans-serif" font-weight="600" font-size="22" fill="#FFD60A" letter-spacing="6">LICENCIRANI ELEKTRIČAR · BEOGRAD</text>
</svg>